<svg width="14" height="14" viewBox="0 0 14 14" fill="none" xmlns="http://www.w3.org/2000/svg">
  <path d="M2.09885 0.000317805C1.86452 0.00740442 1.65866 0.131077 1.48636 0.303361L1.19888 0.590374L4.31442 3.76268L4.76669 3.31038C5.03926 3.03782 5.03926 2.58779 4.76669 2.31523L2.75436 0.303361C2.55946 0.108453 2.33317 -0.00687511 2.09885 0.000317805ZM7.49954 1.18181C10.2206 1.18181 12.4219 3.38308 12.4219 6.10414C12.4148 6.42366 12.8977 6.42366 12.8906 6.10414C12.8906 3.12975 10.4739 0.714889 7.48833 0.714889C7.18959 0.750676 7.20992 1.17379 7.49955 1.18181H7.49954ZM0.866548 0.921802L0.536499 1.25139C-0.00356327 1.79145 6.04703e-07 2.49807 6.04703e-07 2.82424C6.04703e-07 4.17392 0.539576 6.50728 3.81821 9.78591C7.09685 13.0646 9.43066 13.6046 10.7803 13.6046C11.1065 13.6046 11.8132 13.6081 12.3532 13.0681L12.6517 12.7696L9.53613 9.59733L9.20929 9.92462C9.0156 10.1183 8.87266 10.1415 8.73367 10.1251C8.5947 10.1088 8.45102 10.0284 8.34595 9.94706C7.77301 9.5035 6.8454 8.86858 5.79071 7.81389C4.73602 6.7592 4.1011 5.83111 3.65753 5.25819C3.57621 5.15311 3.4958 5.01126 3.47946 4.87229C3.46308 4.7333 3.48823 4.58855 3.68179 4.39485L3.98254 4.09411L0.866548 0.921802ZM7.49954 2.11976C7.19388 2.12684 7.19388 2.58175 7.49954 2.58851C9.44394 2.58851 11.0152 4.15973 11.0152 6.10414C11.0219 6.40978 11.4771 6.40978 11.4839 6.10414C11.4839 3.9064 9.69728 2.11976 7.49954 2.11976ZM7.49954 3.526C7.18674 3.526 7.18674 3.99522 7.49954 3.99522C8.66729 3.99522 9.60846 4.93639 9.60846 6.10414C9.60846 6.41694 10.0777 6.41694 10.0777 6.10414C10.0777 4.68305 8.92063 3.526 7.49954 3.526ZM7.49954 5.40192C7.89064 5.40192 8.20404 5.71304 8.20404 6.10414C8.19695 6.42366 8.67988 6.42366 8.67279 6.10414C8.67279 5.45971 8.14398 4.93271 7.48833 4.93271C7.16454 4.94785 7.18697 5.41709 7.49955 5.40192H7.49954ZM10.7913 8.63327C10.6108 8.63327 10.4305 8.70158 10.2942 8.83791L9.86755 9.26501L12.9836 12.4377L13.3012 12.1201C13.4735 11.9478 13.5966 11.7401 13.6038 11.5057C13.6109 11.2714 13.4961 11.0451 13.3012 10.8502L11.2889 8.83791C11.1526 8.70162 10.9719 8.63327 10.7913 8.63327Z" fill="#F5F5F5" />
</svg>